<svg width="260" height="260" viewBox="0 0 260 260" fill="none" xmlns="http://www.w3.org/2000/svg">
<rect x="26" y="46" width="208" height="168" rx="21" fill="black" stroke="white" stroke-width="8"/>
<path d="M66.8746 82.7701L66.8653 82.7615L66.8556 82.7534L54.2904 72.2673C50.7899 69.3461 45.5 71.9268 45.5 76.4558C45.5 78.0917 46.2738 79.6507 47.5906 80.628L58.8592 88.9915V89.0094L47.6189 97.3752C46.2849 98.3681 45.5 99.9411 45.5 101.602C45.5 106.131 50.7868 108.657 54.2754 105.745L66.8556 95.2466L66.5352 94.8627L66.8675 95.2363C70.5517 91.9595 70.6067 86.2197 66.9858 82.8729L66.8746 82.7701Z" fill="#EBEBEB" stroke="black"/>
<rect x="146.5" y="113.5" width="66" height="17" fill="#FF3333" stroke="black"/>
<rect x="89.5" y="81.5" width="83" height="17" fill="#FF3333" stroke="black"/>
<rect x="192.5" y="81.5" width="20" height="17" fill="#FF3333" stroke="black"/>
<rect x="46.5" y="175.5" width="72" height="17" fill="#FF3333" stroke="black"/>
<rect x="46.5" y="118.5" width="46" height="7" fill="#8A8A8A" stroke="black"/>
<rect x="78.5" y="86.5" width="10" height="7" fill="#8A8A8A" stroke="black"/>
<rect x="150.5" y="148.5" width="37" height="7" fill="#8A8A8A" stroke="black"/>
<rect x="119.5" y="180.5" width="24" height="7" fill="#8A8A8A" stroke="black"/>
<rect x="99.5" y="118.5" width="46" height="7" fill="#8A8A8A" stroke="black"/>
<rect x="194.5" y="148.5" width="8" height="7" fill="#8A8A8A" stroke="black"/>
<rect x="173.5" y="86.5" width="12" height="7" fill="#8A8A8A" stroke="black"/>
<rect x="123.5" y="148.5" width="4" height="7" fill="#8A8A8A" stroke="black"/>
<rect x="67.5" y="148.5" width="10" height="7" fill="#8A8A8A" stroke="black"/>
<rect x="150.5" y="180.5" width="18" height="7" fill="#8A8A8A" stroke="black"/>
<rect x="46.5" y="143.5" width="20" height="17" fill="#FF3333" stroke="black"/>
<rect x="78.3789" y="143.5" width="38.2424" height="17" fill="#FF3333" stroke="black"/>
<rect x="128.5" y="143.5" width="37" height="17" fill="#FF3333" stroke="black"/>
</svg>
